<?xml version="1.0" standalone="no"?>
<!DOCTYPE svg PUBLIC "-//W3C//DTD SVG 20010904//EN"
 "http://www.w3.org/TR/2001/REC-SVG-20010904/DTD/svg10.dtd">
<svg version="1.0" xmlns="http://www.w3.org/2000/svg"
 width="1028.000000pt" height="254.000000pt" viewBox="0 0 1028.000000 254.000000"
 preserveAspectRatio="xMidYMid meet">

<g transform="translate(0.000000,254.000000) scale(0.100000,-0.100000)"
fill="#000000" stroke="none">
<path d="M9890 1310 l0 -750 90 0 90 0 0 750 0 750 -90 0 -90 0 0 -750z"/>
<path d="M200 1275 l0 -715 90 0 90 0 0 241 0 241 72 74 c39 41 75 74 79 74 4
0 134 -142 289 -315 l281 -315 120 0 121 0 -109 123 c-60 67 -180 203 -268
302 -87 99 -189 214 -227 256 l-68 76 142 149 c78 82 222 233 321 337 l179
187 -113 0 -114 0 -344 -370 c-189 -204 -348 -370 -352 -370 -5 0 -9 167 -9
370 l0 370 -90 0 -90 0 0 -715z"/>
<path d="M6425 1648 c-159 -30 -290 -147 -352 -314 -31 -85 -43 -268 -23 -383
15 -93 76 -216 130 -265 151 -137 382 -138 578 -4 l42 29 0 -80 c0 -159 -39
-241 -135 -290 -97 -48 -288 -40 -462 20 l-54 18 3 -92 3 -92 85 -18 c108 -23
323 -27 400 -8 130 32 218 94 268 189 64 119 65 131 69 730 l5 542 -85 0 c-82
0 -85 -1 -91 -24 l-6 -25 -64 29 c-99 45 -206 58 -311 38z m305 -179 l65 -24
3 -297 2 -297 -96 -48 -97 -48 -106 0 c-98 0 -110 2 -153 28 -84 49 -128 160
-128 319 0 199 66 326 196 378 69 28 221 23 314 -11z"/>
<path d="M8375 1649 c-201 -33 -352 -178 -400 -381 -20 -84 -20 -276 0 -353
36 -138 128 -252 250 -310 94 -44 168 -59 300 -59 113 0 188 16 318 64 l57 21
0 99 0 99 -42 -28 c-52 -34 -157 -77 -229 -92 -84 -18 -225 -7 -290 23 -108
49 -169 127 -194 246 -8 37 -15 75 -15 85 0 16 25 17 395 17 l395 0 0 103 c0
115 -17 195 -57 269 -85 156 -275 233 -488 197z m235 -163 c82 -43 140 -136
140 -226 l0 -40 -310 0 c-170 0 -310 2 -310 4 0 2 9 33 20 68 31 100 107 175
210 209 45 15 211 5 250 -15z"/>
<path d="M2222 1228 c4 -388 5 -405 27 -472 54 -162 216 -249 401 -216 78 14
147 44 229 99 l61 42 0 -61 0 -60 90 0 90 0 0 535 0 535 -90 0 -90 0 0 -403 0
-403 -77 -46 c-110 -65 -167 -81 -265 -76 -87 5 -116 20 -155 77 -38 56 -43
115 -43 491 l0 360 -91 0 -90 0 3 -402z"/>
<path d="M4162 1228 c4 -388 5 -405 27 -472 54 -162 216 -249 401 -216 78 14
147 44 229 99 l61 42 0 -61 0 -60 90 0 90 0 0 535 0 535 -90 0 -90 0 0 -403 0
-403 -77 -46 c-110 -65 -167 -81 -265 -76 -87 5 -116 20 -155 77 -38 56 -43
115 -43 491 l0 360 -91 0 -90 0 3 -402z"/>
</g>
</svg>
